<svg id="Capa_1" enable-background="new 0 0 512.077 512.077" height="512" viewBox="0 0 512.077 512.077" width="512" xmlns="http://www.w3.org/2000/svg"><g><g><path d="m401.414 351.752-10.584 2.622-50-20.5-4.96-8.096-.428-.166-2.162.512-55.783 32.583h-41.167l-59.042-33.102h-1.661l-.424.165-6.206 9.916-53 18.021-6.327-1.935c-15.573 8.924-25.64 25.945-25.64 44.844v98.848c0 5.184 4.203 9.387 9.387 9.387h324.242c5.184 0 9.387-4.203 9.387-9.387v-98.804c0-18.595-9.769-35.841-25.632-44.908z" fill="#e4f6ff"/><path d="m112.83 414.952c0-20.381 6.001-40.306 17.255-57.298l7.469-11.277-21.557 7.33-6.327-1.935c-15.573 8.924-25.64 25.945-25.64 44.844v98.848c0 5.184 4.203 9.387 9.387 9.387h19.413c0-20.678 0-61.398 0-89.899z" fill="#d3effb"/><path d="m171.496 172.958-2.4 1.22c-8.809 4.778-15.391 15.234-15.391 25.586 0 15.374 15.117 28.03 32.29 26.65l3.446-4.372v-39.562z" fill="#ffbc85"/><path d="m173.573 199.763c0-7.69 3.636-15.433 9.116-20.867l-11.193-5.938-2.4 1.22c-8.809 4.778-15.391 15.234-15.391 25.586 0 15.374 15.117 28.03 32.29 26.65l2.722-3.453c-8.953-4.648-15.144-13.363-15.144-23.198z" fill="#f5a96c"/><path d="m342.409 173.782-3.913-.825-15.375 10.182v41.943l1.996 1.331c17.148 1.377 32.292-11.257 32.292-26.65 0-10.394-5.942-21.07-15-25.981z" fill="#ffbc85"/><path d="m342.99 174.127c-.195-.113-.382-.238-.58-.345l-3.913-.825-15.375 10.182v41.943l1.996 1.331c6.481.521 12.674-.963 17.873-3.838v-48.448z" fill="#f5a96c"/><path d="m295.462 309.01c-.897-1.179-1.429-2.632-1.433-4.184l-.019-22.868-2.403-1.75h-72.11l-2.453 1.647v22.929c0 2.184-.765 3.657-1.9 4.738l-1.647 3.353 28.833 28.833h27.333l26.257-27.667v-4.508c-.157-.169-.316-.336-.458-.523z" fill="#ffbc85"/><path d="m255.538 280.208h-36.042l-2.453 1.647v22.929c0 2.184-.765 3.657-1.9 4.738l-1.647 3.353 28.833 28.833h13.208v-61.5z" fill="#f5a96c"/><path d="m318.496 180.208h-125l-7.547 4.227v40.081c0 35.861 28.098 68.614 70.601 68.614 37.835 0 68.615-30.781 68.615-68.614v-40.081z" fill="#fed1a3"/><path d="m231.708 224.515v-40.081l7.547-4.227h-45.759l-7.547 4.227v40.081c0 35.861 28.098 68.614 70.601 68.614 7.755 0 15.204-1.312 22.162-3.694-28.987-9.516-47.004-36.213-47.004-64.92z" fill="#ffbc85"/><path d="m340.699 140.303-5.257-4.095h-157.646l-7.38 4.095c-29.226 38.034 28.011 50.799 62.182 54.96 15.251 1.857 30.668 1.857 45.919 0 34.171-4.161 91.408-16.926 62.182-54.96z" fill="#477b9e"/><path d="m216.606 141.171 8.946-4.964h-47.756l-7.38 4.095c-24.729 32.181 12.442 46.271 45.167 52.366-13.255-12.227-16.368-28.865 1.023-51.497z" fill="#365e7d"/><path d="m295.142 13.634c-25.829-7.713-53.341-7.713-79.169 0-53.756 16.053-133.614 73.804-45.557 111.233l5.211 4.34h161.536l3.536-4.34c88.056-37.429 8.198-95.179-45.557-111.233z" fill="#e4f6ff"/><path d="m234.78 9.431c-6.334.963-12.62 2.355-18.807 4.203-53.756 16.053-133.614 73.804-45.557 111.233l5.211 4.34h49l-5.211-5.031c-72.331-35.635-31.367-87.163 15.364-114.745z" fill="#d3effb"/><path d="m269.229 374.208-1.233-1.417h-24.666l-1.445 1.417-10.021 130.644h47.384z" fill="#f87c68"/><path d="m401.905 331.061-52.702-20.366c-3.606-1.393-7.659.4-9.053 4.006l-6.398 16.557c-1.393 3.606.4 7.659 4.006 9.053l52.702 20.366c3.606 1.393 7.659-.4 9.053-4.006l6.398-16.557c1.394-3.606-.4-7.659-4.006-9.053z" fill="#ffe07d"/><path d="m366.141 345.269 7.136-18.467c.944-2.442 2.983-4.132 5.338-4.74l-29.413-11.366c-3.606-1.394-7.659.4-9.053 4.006l-6.398 16.557c-1.394 3.606.4 7.659 4.006 9.053l28.582 11.045c-.854-1.853-.992-4.034-.198-6.088z" fill="#ffc250"/><path d="m109.171 331.061 52.702-20.366c3.606-1.393 7.659.4 9.053 4.006l6.398 16.557c1.394 3.606-.4 7.659-4.006 9.053l-52.702 20.366c-3.606 1.393-7.659-.4-9.053-4.006l-6.398-16.557c-1.394-3.606.4-7.659 4.006-9.053z" fill="#ffe07d"/><path d="m143.002 345.325-7.033-18.199c-.873-2.259-.605-4.675.517-6.621l-27.315 10.556c-3.606 1.394-5.4 5.447-4.006 9.052l6.398 16.557c1.394 3.606 5.447 5.4 9.053 4.006l27.642-10.682c-2.32-.6-4.327-2.264-5.256-4.669z" fill="#ffc250"/><path d="m333.828 112.468c-11.202 3.658-36.448 9.902-78.271 9.902s-67.07-6.244-78.271-9.902c-3.39-1.107-6.87 1.412-6.87 4.979v22.856c10.587 5.148 24.193 8.698 37.408 11.138 31.541 5.824 63.927 5.824 95.467 0 13.215-2.44 26.821-5.99 37.408-11.138v-22.856c0-3.567-3.48-6.086-6.871-4.979z" fill="#ffe07d"/><g><path d="m209.756 123.271c0-1.35.369-2.585.988-3.646-16.054-2.132-27.056-5.066-33.459-7.157-3.39-1.107-6.87 1.412-6.87 4.979v22.856c10.587 5.148 24.193 8.698 37.408 11.138.643.119 1.289.22 1.933.334z" fill="#ffc250"/></g><path d="m270.16 341.184-2.961-1.976c-8.413 0-14.849 0-23.324 0l-1.379.917-12.725 15.583v2.534l12.114 15.966h27.344l12.094-15.944.799-2.257z" fill="#f87c68"/><path d="m257.439 357.011c0-.843.291-1.66.824-2.313l11.339-13.887-2.403-1.604h-23.324l-1.379.917-12.725 15.583v2.534l12.118 15.972c11.361-.002 15.978-.003 27.339-.006l.161-.213-11.208-14.773c-.481-.635-.742-1.412-.742-2.21z" fill="#ec625e"/><g fill="#d3effb"><path d="m283.883 361.074c3.161 3.47 8.537 3.721 12.008.561l39.55-36.022-36.966-14.316c-.948-.366-1.824-.974-2.556-1.763l-25.953 23.638c-3.471 3.161-3.722 8.537-.561 12.008z"/><path d="m175.627 325.606 39.558 36.029c3.471 3.161 8.847 2.91 12.008-.561l14.477-15.895c3.161-3.471 2.91-8.847-.561-12.008l-25.966-23.649c-1.32 1.258-3.143 1.983-4.874 2.654z"/></g></g><g><path d="m235.245 69.459c-1.153-3.979-5.312-6.268-9.292-5.116-3.979 1.153-6.269 5.312-5.116 9.291 3.809 13.142 14.719 22.938 27.781 25.671.507 3.649 3.631 6.461 7.42 6.461s6.913-2.812 7.42-6.461c13.063-2.733 23.974-12.529 27.782-25.671 1.152-3.979-1.138-8.138-5.116-9.291-3.974-1.151-8.138 1.137-9.292 5.116-1.938 6.688-6.997 11.893-13.294 14.242v-21.393h2.852c4.143 0 7.5-3.358 7.5-7.5s-3.357-7.5-7.5-7.5h-2.852v-4.459c2.539-1.202 4.3-3.78 4.3-6.775 0-4.142-3.357-7.5-7.5-7.5h-8.599c-4.143 0-7.5 3.358-7.5 7.5 0 2.995 1.76 5.573 4.299 6.775v4.459h-2.851c-4.143 0-7.5 3.358-7.5 7.5s3.357 7.5 7.5 7.5h2.851v21.393c-6.297-2.349-11.355-7.555-13.293-14.242z"/><path d="m411.096 348.524 2.312-5.983c2.888-7.478-.825-15.864-8.3-18.752l-52.701-20.366c-7.455-2.88-15.868.841-18.752 8.299l-1.575 4.076-30.05-11.638-.016-18.557c16.524-12.14 27.973-30.78 30.57-52.12 18.004-2.026 32.826-16.348 32.826-33.996 0-10.383-4.617-20.596-11.991-27.516 6.432-11.542 2.954-23.583-4.72-34.406v-8.099c23.761-11 36.88-24.692 39.01-40.743 2.232-16.827-7.921-34.624-29.363-51.465-3.259-2.558-7.973-1.992-10.531 1.266-2.559 3.257-1.991 7.972 1.266 10.531 16.797 13.191 25.234 26.579 23.759 37.695-1.246 9.392-9.77 18.393-24.817 26.331-2.231-6.58-9.376-10.188-16.02-8.019-.001 0-.001 0-.001 0-39.067 12.757-112.803 12.762-151.887 0-6.509-2.127-13.713 1.279-16.019 8.012-13.352-7.057-25.681-17.124-24.957-30.057.61-10.917 10.054-23.711 26.592-36.024 45.74-34.054 99.568-43.036 154.857-15.639 3.714 1.84 8.211.32 10.051-3.39 1.839-3.712.32-8.211-3.391-10.05-36.361-18.017-73.87-23.403-112.921-11.742-36.28 10.835-88.24 41.58-90.165 76.008-1.055 18.858 12.153 34.748 39.254 47.283v8.103c-7.824 11.034-11.219 23.29-4.457 34.883-7.458 6.95-12.253 17.124-12.253 27.04 0 17.622 14.786 31.965 32.818 33.995 2.537 21.057 13.65 39.776 30.52 52.036v18.55c-.937.476-.813.384-30.051 11.719l-1.571-4.066c-2.883-7.458-11.3-11.181-18.752-8.298l-52.701 20.365c-7.477 2.889-11.188 11.275-8.3 18.752l2.322 6.007c-14.918 10.971-23.96 28.736-23.96 47.792v98.848c0 9.312 7.576 16.887 16.888 16.887h324.241c9.312 0 16.888-7.576 16.888-16.887v-98.805c-.001-19.113-9.04-36.903-23.952-47.86zm-63.629-30.928 51.77 20.005c-.701 1.814-5.49 14.206-6.038 15.624l-51.77-20.005c.64-1.657.847-2.193 6.038-15.624zm-25.536 10.358-30.59 27.86c-.411.372-1.038.346-1.413-.066l-2.559-2.81s-.001 0-.001-.001l-11.917-13.084c-.337-.371-.366-1.018.065-1.413l21.927-19.97zm-56.513-.604c-1.303 1.187-2.483 2.726-3.235 4.082h-12.288c-.673-1.22-1.849-2.819-3.235-4.082l-21.886-19.934c.18-.934.271-1.906.271-2.908v-10.506c9.395 3.982 20.436 6.352 32.007 6.352 10.637 0 20.767-2.201 29.971-6.159l.009 10.375c.002.961.1 1.909.287 2.834zm77.895-144.332c4.32 4.109 7.097 10.318 7.097 16.47 0 9.282-8.016 16.82-17.244 18.741v-29.176c3.85-1.858 7.227-3.87 10.14-6.031.002-.001.005-.003.007-.004zm-164.897-62.771c41.734 12.499 113.433 12.535 155.283 0v14.923c-40.584 16.83-114.452 16.888-155.283 0 0-13.181 0-9.396 0-14.923zm.533 97.982c-9.356-1.947-17.243-9.566-17.243-18.742 0-5.831 2.994-12.026 7.513-16.155 2.818 2.044 6.064 3.951 9.73 5.72zm-7.745-54.754c-1.618-3.858-.812-8.576 2.392-14.068 43.204 17.552 118.875 18.42 164.924 0 6.856 11.752 2.222 18.912-10.39 25.37-13.919 7.099-34.57 10.887-50.018 12.767-39.869 4.851-99.386-6.143-106.908-24.069zm22.745 60.765v-29.423c37.76 11.605 84.904 12.083 124.217 0 0 35.003.013 28.635-.035 30.814-1.064 33.893-28.298 59.724-61.08 59.724-39.296-.001-63.102-30.906-63.102-61.115zm-29.339 93.356c1.388 3.592 4.648 12.029 6.038 15.624l-51.77 20.005c-.31-.803-5.728-14.82-6.038-15.624zm60.809 179.481h-76.214v-89.231c0-4.142-3.357-7.5-7.5-7.5s-7.5 3.358-7.5 7.5v89.231h-40.287c-1.041 0-1.888-.847-1.888-1.887v-98.848c0-13.066 5.647-25.306 15.132-33.547 3.961 5.042 10.749 6.883 16.657 4.602l52.701-20.365c2.588-1 4.963-2.796 6.626-5.164l27.488 25.035c5.156 4.695 12.735 5.438 18.617 2.127l5.438 7.167zm11.206-157.224c-.001.001-11.898 13.063-11.898 13.064l-2.578 2.831c-.37.408-.999.443-1.413.066l-30.6-27.87 23.343-9.05c.348-.135.728-.282 1.131-.446l21.95 19.992c.41.375.424 1.02.065 1.413zm11.09 10.101c.006-.007.011-.015.018-.021.894-.984 1.796-2.276 2.419-3.5h11.774c.623 1.224 1.525 2.516 2.419 3.5.006.007.011.015.018.021 5.858 6.431 4.327 4.751 7.716 8.472l-6.073 8.006h-19.896l-6.091-8.028zm172.332 145.235c0 1.041-.847 1.887-1.888 1.887h-40.287v-89.231c0-4.142-3.357-7.5-7.5-7.5s-7.5 3.358-7.5 7.5v89.231h-76.176l-3.137-40.896c-.317-4.129-3.93-7.218-8.052-6.904-4.13.317-7.222 3.921-6.904 8.052l3.048 39.749h-31.188l8.87-115.645h13.45l3.136 40.896c.318 4.13 3.949 7.225 8.052 6.904 4.13-.317 7.222-3.921 6.905-8.052l-3.45-44.984 5.425-7.152c5.896 3.297 13.454 2.537 18.591-2.141l27.496-25.042c1.549 2.205 3.858 4.102 6.618 5.17l52.702 20.366c5.946 2.295 12.731.415 16.674-4.623 9.475 8.234 15.115 20.495 15.115 33.61z"/></g></g></svg>